#!OML:ASF H:\Male1\Project 1\Capture day 1\Session 1\Male1.ASF
:FULLY-SPECIFIED
:DEGREES
2018
root 17.2306 15.1606 2.84353 1074.92 -93.4225 -1077.08
lowerback 8.2041 1.27494 -0.939256
upperback 1.91161 1.44094 -2.88246
thorax -2.56874 0.681719 -2.5987
lowerneck -25.2219 7.99017 -4.29651
upperneck 5.26931 -54.2816 -2.51767
head 212.182 -145.231 2.57166
rclavicle 2.48481e-015 -1.98785e-014
rhumerus -31.3472 -9.92734 -7.86634
rradius 36.3241
rwrist -25.8866
rhand -19.4547 -8.36524
rfingers 7.12502
rthumb 6.86627 -38.2339
lclavicle 2.48481e-015 -1.98785e-014
lhumerus -16.4947 5.90323 -0.138225
lradius 26.2878
lwrist -3.33342
lhand -12.1738 13.2099
lfingers 7.12502
lthumb 13.8895 42.7261
rfemur -7.21304 22.573 16.2772
rtibia 33.3149
rfoot -42.8297 -20.7808
rtoes 14.652
lfemur -6.02671 -22.2475 -19.5513
ltibia 33.5191
lfoot -27.9616 29.2931
ltoes 9.40324
2019
root 17.2398 15.1563 2.85586 1079.89 -93.4032 -1082.09
lowerback 8.2053 1.25516 -1.30342
upperback 1.9226 1.37839 -2.94942
thorax -2.5676 0.650835 -2.45664
lowerneck -25.0559 8.04438 -4.93095
upperneck 5.36152 -54.5666 -2.5194
head 212.209 -146.739 2.77468
rclavicle 1.93815e-014 -4.13472e-014
rhumerus -31.1948 -9.59564 -7.99378
rradius 36.4551
rwrist -26.3406
rhand -19.8816 -8.24446
rfingers 7.12502
rthumb 6.45414 -38.1261
lclavicle 1.93815e-014 -4.13472e-014
lhumerus -16.5732 6.0727 -0.293901
lradius 26.3654
lwrist -3.25011
lhand -12.1997 13.0027
lfingers 7.12502
lthumb 13.8646 42.5205
rfemur -7.18941 22.5821 15.8968
rtibia 33.3638
rfoot -42.9853 -20.5898
rtoes 14.5524
lfemur -6.00025 -22.3572 -19.9681
ltibia 33.5034
lfoot -27.9925 29.3692
ltoes 9.48407
2020
root 17.2483 15.1534 2.86597 1084.45 -93.3616 -1086.65
lowerback 8.18397 1.20198 -1.6124
upperback 1.90397 1.27836 -2.99496
thorax -2.58422 0.601691 -2.31961
lowerneck -24.8708 8.14031 -5.52677
upperneck 5.43052 -54.7201 -2.52048
head 212.235 -148.142 2.92848
rclavicle -1.28216e-014 2.94201e-014
rhumerus -30.9846 -9.26502 -8.10452
rradius 36.571
rwrist -26.6603
rhand -20.0686 -8.25379
rfingers 7.12502
rthumb 6.27355 -38.1409
lclavicle -1.28216e-014 2.94201e-014
lhumerus -16.7255 5.95925 -0.425013
lradius 26.5051
lwrist -2.81235
lhand -12.2498 12.854
lfingers 7.12502
lthumb 13.8163 42.3752
rfemur -7.20264 22.6454 15.5525
rtibia 33.4234
rfoot -43.2298 -20.3791
rtoes 14.6609
lfemur -6.04327 -22.6307 -20.3222
ltibia 33.4762
lfoot -28.0887 29.4247
ltoes 10.3821
2021
root 17.2561 15.1513 2.87295 1087.82 -93.3089 -1090.01
lowerback 8.19019 1.10901 -1.82697
upperback 1.87999 1.13377 -3.02089
thorax -2.62029 0.530384 -2.21155
lowerneck -24.6892 8.30867 -6.11179
upperneck 5.45143 -54.78 -2.47842
head 212.298 -149.478 2.94496
rclavicle -3.8763e-015 -3.18055e-015
rhumerus -30.6393 -9.28849 -8.18588
rradius 36.5456
rwrist -26.393
rhand -19.8639 -8.44425
rfingers 7.12502
rthumb 6.47122 -38.3254
lclavicle -3.8763e-015 -3.18055e-015
lhumerus -16.8463 6.06689 -0.601231
lradius 26.4781
lwrist -2.61046
lhand -12.5122 13.1609
lfingers 7.12502
lthumb 13.5634 42.6991
rfemur -7.19364 22.8327 15.3335
rtibia 33.46
rfoot -43.5582 -20.2872
rtoes 14.8422
lfemur -6.09042 -22.9616 -20.5838
ltibia 33.4667
lfoot -28.2484 29.4921
ltoes 11.4774
2022
root 17.2643 15.1502 2.87448 1089.44 -93.3056 -1091.65
lowerback 8.26077 1.06607 -1.90477
upperback 1.83603 1.06282 -3.0782
thorax -2.70713 0.494994 -2.22225
lowerneck -24.4324 8.44714 -6.63182
upperneck 5.49529 -54.9063 -2.42966
head 212.347 -150.845 2.98978
rclavicle 1.78906e-015 -1.90833e-014
rhumerus -30.4257 -9.49251 -8.22602
rradius 36.4663
rwrist -25.912
rhand -19.696 -8.53456
rfingers 7.12502
rthumb 6.63332 -38.4107
lclavicle 1.78906e-015 -1.90833e-014
lhumerus -16.7368 6.46302 -0.768124
lradius 26.2962
lwrist -2.93958
lhand -12.5282 13.3086
lfingers 7.12502
lthumb 13.548 42.8479
rfemur -7.15074 23.1612 15.2682
rtibia 33.4392
rfoot -43.8991 -20.3343
rtoes 15.1138
lfemur -6.11014 -23.104 -20.7282
ltibia 33.5057
lfoot -28.4308 29.6001
ltoes 11.5174
2023
root 17.2716 15.1494 2.87337 1088.77 -93.3166 -1091
lowerback 8.27028 1.03383 -1.83474
upperback 1.82636 1.02428 -3.10584
thorax -2.72159 0.475285 -2.28668
lowerneck -24.3013 8.56231 -6.95312
upperneck 5.44783 -54.9457 -2.31146
head 212.376 -151.838 2.9495
rclavicle -5.06901e-015 1.59028e-015
rhumerus -30.2144 -9.63138 -8.28074
rradius 36.4218
rwrist -25.687
rhand -19.6622 -8.51729
rfingers 7.12502
rthumb 6.66591 -38.3924
lclavicle -5.06901e-015 1.59028e-015
lhumerus -16.6831 6.77867 -0.902555
lradius 26.2412
lwrist -3.10664
lhand -12.4656 13.3058
lfingers 7.12502
lthumb 13.6083 42.841
rfemur -7.12148 23.4876 15.3479
rtibia 33.3737
rfoot -44.076 -20.545
rtoes 15.231
lfemur -6.16351 -23.1362 -20.6958
ltibia 33.5823
lfoot -28.4953 29.7029
ltoes 11.0531
